<svg width="35" height="35" viewBox="0 0 35 35" fill="none" xmlns="http://www.w3.org/2000/svg">
<path d="M17.6545 30.139C20.9974 30.139 24.2034 28.8163 26.5671 26.4618C28.9309 24.1074 30.2589 20.9141 30.2589 17.5845C30.2589 14.2548 28.9309 11.0615 26.5671 8.70708C24.2034 6.35265 20.9974 5.02994 17.6545 5.02994C14.3116 5.02994 11.1057 6.35265 8.74189 8.70708C6.37812 11.0615 5.05017 14.2548 5.05017 17.5845C5.05017 20.9141 6.37812 24.1074 8.74189 26.4618C11.1057 28.8163 14.3116 30.139 17.6545 30.139ZM17.6545 32.6499C15.6682 32.6499 13.7014 32.2602 11.8663 31.5031C10.0313 30.746 8.36387 29.6363 6.95937 28.2373C5.55486 26.8384 4.44075 25.1776 3.68064 23.3497C2.92052 21.5219 2.5293 19.5629 2.5293 17.5845C2.5293 15.606 2.92052 13.647 3.68064 11.8192C4.44075 9.99135 5.55486 8.33055 6.95937 6.9316C8.36387 5.53265 10.0313 4.42294 11.8663 3.66583C13.7014 2.90872 15.6682 2.51904 17.6545 2.51904C21.666 2.51904 25.5131 4.10629 28.3496 6.9316C31.1862 9.75691 32.7797 13.5889 32.7797 17.5845C32.7797 21.58 31.1862 25.412 28.3496 28.2373C25.5131 31.0626 21.666 32.6499 17.6545 32.6499Z" fill="#27AAE1"/>
<path d="M8.99936 29.8479L11.1824 31.1034L9.29178 34.3651C9.20962 34.509 9.09969 34.6353 8.96832 34.7368C8.83695 34.8382 8.68673 34.9128 8.52631 34.9561C8.36589 34.9995 8.19844 35.0109 8.0336 34.9895C7.86876 34.9682 7.70979 34.9146 7.56583 34.8318C7.42188 34.749 7.29579 34.6387 7.19481 34.5072C7.09384 34.3756 7.01999 34.2255 6.9775 34.0654C6.93501 33.9054 6.92473 33.7385 6.94725 33.5745C6.96977 33.4104 7.02464 33.2524 7.10871 33.1096L8.99936 29.8479ZM26.3076 29.8479L24.1246 31.1034L26.0152 34.3651C26.0974 34.509 26.2073 34.6353 26.3387 34.7368C26.4701 34.8382 26.6203 34.9128 26.7807 34.9561C26.9411 34.9995 27.1086 35.0109 27.2734 34.9895C27.4382 34.9682 27.5972 34.9146 27.7412 34.8318C27.8851 34.749 28.0112 34.6387 28.1122 34.5072C28.2132 34.3756 28.287 34.2255 28.3295 34.0654C28.372 33.9054 28.3823 33.7385 28.3598 33.5745C28.3372 33.4104 28.2824 33.2524 28.1983 33.1096L26.3076 29.8479ZM17.6535 17.5847H23.9557C24.29 17.5847 24.6106 17.717 24.8469 17.9524C25.0833 18.1879 25.2161 18.5072 25.2161 18.8402C25.2161 19.1731 25.0833 19.4925 24.8469 19.7279C24.6106 19.9633 24.29 20.0956 23.9557 20.0956H16.3931C16.0588 20.0956 15.7382 19.9633 15.5018 19.7279C15.2654 19.4925 15.1326 19.1731 15.1326 18.8402V10.052C15.1326 9.71904 15.2654 9.39971 15.5018 9.16426C15.7382 8.92882 16.0588 8.79655 16.3931 8.79655C16.7274 8.79655 17.048 8.92882 17.2843 9.16426C17.5207 9.39971 17.6535 9.71904 17.6535 10.052V17.5847ZM1.05106 9.74818C0.246666 8.54082 -0.113601 7.09345 0.0313874 5.65165C0.176376 4.20984 0.817689 2.8624 1.84652 1.83793C2.87534 0.81347 4.22832 0.175082 5.67589 0.031083C7.12346 -0.112916 8.57647 0.246344 9.78839 1.04791L7.94312 2.88589C7.23751 2.55023 6.44478 2.44071 5.67408 2.57241C4.90339 2.70412 4.19265 3.07058 3.63972 3.62131C3.0868 4.17205 2.71889 4.87998 2.58666 5.64763C2.45443 6.41527 2.56438 7.20487 2.90138 7.90769L1.05358 9.74818H1.05106ZM33.9509 9.74818C34.7542 8.54101 35.1137 7.09431 34.9685 5.6533C34.8233 4.21229 34.1823 2.86562 33.1541 1.84155C32.126 0.817481 30.774 0.179015 29.3272 0.0343704C27.8805 -0.110274 26.4281 0.247803 25.2161 1.04791L27.0614 2.88589C27.767 2.55023 28.5597 2.44071 29.3304 2.57241C30.1011 2.70412 30.8119 3.07058 31.3648 3.62131C31.9177 4.17205 32.2856 4.87998 32.4178 5.64763C32.5501 6.41527 32.4401 7.20487 32.1031 7.90769L33.9509 9.74818Z" fill="#27AAE1"/>
</svg>
