<svg width="34" height="37" viewBox="0 0 34 37" fill="none" xmlns="http://www.w3.org/2000/svg">
<path d="M22.4634 33.2732L19.0409 29.8507L17.1777 31.7139L22.4634 36.9996L33.0349 26.4282L31.1717 24.5649L22.4634 33.2732Z" fill="#27AAE1"/>
<path d="M26.4286 3.96429H22.4643V2.64286C22.4622 1.94257 22.1831 1.27156 21.6879 0.776385C21.1927 0.281206 20.5217 0.00209146 19.8214 0H9.25C8.54971 0.00209146 7.87871 0.281206 7.38353 0.776385C6.88835 1.27156 6.60923 1.94257 6.60714 2.64286V3.96429H2.64286C1.94257 3.96638 1.27156 4.24549 0.776385 4.74067C0.281206 5.23585 0.00209146 5.90686 0 6.60714V34.3571C0.00209146 35.0574 0.281206 35.7284 0.776385 36.2236C1.27156 36.7188 1.94257 36.9979 2.64286 37H14.5357V34.3571H2.64286V6.60714H6.60714V10.5714H22.4643V6.60714H26.4286V21.1429H29.0714V6.60714C29.0693 5.90686 28.7902 5.23585 28.295 4.74067C27.7999 4.24549 27.1289 3.96638 26.4286 3.96429ZM19.8214 7.92857H9.25V2.64286H19.8214V7.92857Z" fill="#27AAE1"/>
</svg>
